<svg width="53" height="54" viewBox="0 0 53 54" fill="none" xmlns="http://www.w3.org/2000/svg">
<path d="M40.3048 46.9267C39.8107 44.0979 37.3369 41.9438 34.369 41.9438H28.8164V53.997H34.369C37.3369 53.997 39.8107 51.8429 40.3048 49.011C40.365 48.6721 40.3967 48.3236 40.3967 47.9688C40.3967 47.614 40.365 47.2656 40.3048 46.9267ZM34.369 51.9126H30.9038V44.0314H34.369C36.1808 44.0314 37.7107 45.2604 38.1668 46.9267C38.2586 47.2593 38.3093 47.6109 38.3093 47.9688C38.3093 48.3268 38.2586 48.6816 38.1668 49.011C37.7107 50.6804 36.1808 51.9095 34.369 51.9095V51.9126Z" fill="#006B5E"/>
<path d="M29.8594 46.6034H27.2843C26.7078 46.6034 26.2422 46.1377 26.2422 45.5612C26.2422 44.9847 26.7078 44.519 27.2843 44.519H29.8594V46.6066V46.6034Z" fill="#006B5E"/>
<path d="M29.8594 51.4276H27.2843C26.7078 51.4276 26.2422 50.962 26.2422 50.3854C26.2422 49.8089 26.7078 49.3433 27.2843 49.3433H29.8594V51.4308V51.4276Z" fill="#006B5E"/>
<path d="M34.7087 29.5074C34.7087 31.8768 33.7838 34.1101 32.1082 35.7858L23.8759 44.0187L23.8632 44.0313H18.3233C16.5116 44.0313 14.9848 45.2604 14.5256 46.9266C14.4337 47.2592 14.383 47.6109 14.383 47.9688C14.383 48.3268 14.4337 48.6815 14.5256 49.011C14.9817 50.6804 16.5116 51.9094 18.3233 51.9094H21.7917V44.893H23.8791V53.997H18.3265C15.3586 53.997 12.888 51.8429 12.3907 49.011C12.3305 48.672 12.2988 48.3236 12.2988 47.9688C12.2988 47.614 12.3305 47.2656 12.3907 46.9266C12.8848 44.0979 15.3554 41.9438 18.3265 41.9438H23.0017L26.2832 38.6621L30.6385 34.3065C31.9213 33.0235 32.6276 31.3161 32.6276 29.5042C32.6276 27.6923 31.9213 25.9849 30.6385 24.702L26.2832 20.3464L21.9279 24.702C19.2799 27.3502 19.2799 31.6583 21.9279 34.3065L22.9098 35.2885C23.6922 34.6137 25.7637 32.6624 26.6379 29.3395C27.528 25.9532 26.6443 23.1878 26.2864 22.2248C26.9832 23.3462 28.3294 25.893 28.0601 29.1494C27.7497 32.9222 25.4406 35.5577 24.3859 36.7614C23.8157 37.4108 23.2899 37.905 22.9098 38.2376L20.4551 35.7826C16.993 32.3203 16.993 26.6881 20.4551 23.2258L26.2864 17.394L32.1177 23.2258C33.7933 24.9015 34.7182 27.1316 34.7182 29.5042L34.7087 29.5074Z" fill="url(#paint0_linear_0_1)"/>
<path d="M40.6924 18.4327L26.347 10.1492L11.9984 18.4327L6.49647 21.6099L2.08736 24.16V46.9263H6.49647V49.0138H0V22.9531L6.49647 19.1993L11.9984 16.0253L26.347 7.7417L40.6924 16.0253V18.4327Z" fill="#006B5E"/>
<path d="M52.6907 22.9532V49.014H40.3027C40.3629 48.675 40.3946 48.3266 40.3946 47.9718C40.3946 47.617 40.3629 47.2686 40.3027 46.9296H50.6033V24.1601L46.1911 21.6133V19.2026L52.6875 22.9532H52.6907Z" fill="#006B5E"/>
<path d="M12.3881 46.9263C12.3279 47.2652 12.2962 47.6137 12.2962 47.9685C12.2962 48.3232 12.3279 48.6717 12.3881 49.0106H8.20703V22.5919L10.2944 21.3882V46.9231H12.3913L12.3881 46.9263Z" fill="url(#paint1_linear_0_1)"/>
<path d="M44.4865 10.4756V45.2191H42.3991V11.6794L26.3464 2.40746L10.2905 11.6794V15.0403L8.20312 16.244V10.4756L26.3464 0L44.4865 10.4756Z" fill="url(#paint2_linear_0_1)"/>
<defs>
<linearGradient id="paint0_linear_0_1" x1="1.16518" y1="52.3624" x2="55.6009" y2="14.4299" gradientUnits="userSpaceOnUse">
<stop stop-color="#009A83"/>
<stop offset="1" stop-color="#55843D"/>
</linearGradient>
<linearGradient id="paint1_linear_0_1" x1="-3.61396" y1="45.5008" x2="50.8217" y2="7.56825" gradientUnits="userSpaceOnUse">
<stop stop-color="#009A83"/>
<stop offset="1" stop-color="#55843D"/>
</linearGradient>
<linearGradient id="paint2_linear_0_1" x1="-2.10064" y1="47.6741" x2="52.335" y2="9.74151" gradientUnits="userSpaceOnUse">
<stop stop-color="#009A83"/>
<stop offset="1" stop-color="#55843D"/>
</linearGradient>
</defs>
</svg>
